<?xml version="1.0" encoding="UTF-8"?>
<svg id="svg2" width="16px" height="16px" version="1.1" viewBox="0 0 16 16" xmlns="http://www.w3.org/2000/svg">
 <path id="path1" d="m0.99985 0a1 1 0 0 0-0.70703 0.29297 1 1 0 0 0 0 1.4141l14 14a1 1 0 0 0 1.4141 0 1 1 0 0 0 0-1.4141l-3.7109-3.7109v-6.582c0-0.55078-0.44922-1-1-1s-1 0.44922-1 1v4.582l-1-1v-6.5117c0-0.58984-0.44922-1.0703-1-1.0703s-1 0.48048-1 1.0703v4.5117l-1-1v-0.58203c0-0.55078-0.44922-1-1-1-0.16819 0-0.32745 0.04135-0.4668 0.11523l-2.8223-2.8223a1 1 0 0 0-0.70703-0.29297zm1 6c-0.55078 0-1 0.44922-1 1v2c0 0.55078 0.44922 1 1 1s1-0.44922 1-1v-2c0-0.55078-0.44922-1-1-1zm12 0c-0.55078 0-1 0.44922-1 1v2c0 0.55078 0.44922 1 1 1s1-0.44922 1-1v-2c0-0.55078-0.44922-1-1-1zm-10.004 1.4102v4.5898c0 0.55078 0.44922 1 1 1s1-0.44922 1-1v-2.5898zm3 3v4.5195c0 0.58984 0.44922 1.0703 1 1.0703s1-0.48048 1-1.0703v-2.5195z" stop-color="#000000" stroke-linecap="round" stroke-linejoin="round"/>
</svg>
