<?xml version="1.0" encoding="UTF-8"?>
<svg id="svg1" width="16px" height="16px" version="1.1" viewBox="0 0 16 16" xmlns="http://www.w3.org/2000/svg">
 <path id="path3-7" d="m1 0a1 1 0 0 0-0.70703 0.29297 1 1 0 0 0 0 1.4141l14 14a1 1 0 0 0 1.4141 0 1 1 0 0 0 0-1.4141l-0.39258-0.39258c0.42766-0.51914 0.68555-1.1823 0.68555-1.9004v-8c0-1.645-1.355-3-3-3h-10c-0.1831 0-0.36262 0.01677-0.53711 0.048828l-0.75586-0.75586a1 1 0 0 0-0.70703-0.29297zm3.4141 3h8.5859c0.56415 0 1 0.43582 1 1v8c0 0.17244-0.040627 0.33298-0.11328 0.47266l-0.88672-0.88672v-0.58594h-0.58594l-1.4141-1.4141v-0.58594h-0.58594l-6-6zm-4.3652 0.46289c-0.032105 0.17444-0.048828 0.35401-0.048828 0.53711v8c0 1.645 1.355 3 3 3h8.5859l-2-2h-6.5859c-0.56415 0-1-0.43582-1-1v-6.5859l-1.9512-1.9512zm2.9512 5.5371v1h3.5859l-1-1h-2.5859zm9 0v1h1v-1h-1zm-9 2v1h2v-1h-2zm3 0v1h2.5859l-1-1h-1.5859z" stop-color="#000000" stroke-linecap="round" stroke-linejoin="round"/>
</svg>
